<?xml version="1.0" encoding="UTF-8"?>
<svg width="256" height="256" viewBox="0 0 256 256" xmlns="http://www.w3.org/2000/svg" role="img" aria-label="SpellGraphix icon">
  <defs>
    <linearGradient id="bg" x1="0%" y1="0%" x2="100%" y2="100%">
      <stop offset="0%" stop-color="#4c1c88"/>
      <stop offset="100%" stop-color="#111b34"/>
    </linearGradient>
    <linearGradient id="poly" x1="0%" y1="0%" x2="0%" y2="100%">
      <stop offset="0%" stop-color="#f5c871"/>
      <stop offset="100%" stop-color="#f08c2e"/>
    </linearGradient>
  </defs>
  <rect width="256" height="256" rx="48" ry="48" fill="url(#bg)"/>
  <g transform="translate(128 128)">
    <polygon points="0,-88 84,-20 52,80 -52,80 -84,-20" fill="url(#poly)" stroke="#2b0b46" stroke-width="6" stroke-linejoin="round"/>
    <polyline points="0,-88 0,32 52,80" fill="none" stroke="#2b0b46" stroke-width="4" stroke-linecap="round"/>
    <polyline points="0,32 -52,80" fill="none" stroke="#2b0b46" stroke-width="4" stroke-linecap="round"/>
    <polyline points="84,-20 0,32 -84,-20" fill="none" stroke="#2b0b46" stroke-width="4" stroke-linecap="round"/>
    <circle cx="0" cy="-8" r="14" fill="#1d1433" stroke="#f8dfb5" stroke-width="4"/>
  </g>
  <g transform="translate(190 60) rotate(-15)">
    <line x1="0" y1="-10" x2="0" y2="10" stroke="#f8dfb5" stroke-width="4" stroke-linecap="round"/>
    <line x1="-10" y1="0" x2="10" y2="0" stroke="#f8dfb5" stroke-width="4" stroke-linecap="round"/>
    <line x1="-7" y1="-7" x2="7" y2="7" stroke="#f8dfb5" stroke-width="3" stroke-linecap="round"/>
    <line x1="-7" y1="7" x2="7" y2="-7" stroke="#f8dfb5" stroke-width="3" stroke-linecap="round"/>
  </g>
</svg>
